<svg width="32" height="32" viewBox="0 0 32 32" fill="none" xmlns="http://www.w3.org/2000/svg">
<path d="M0 14V18C0 18.5523 0.447715 19 1 19H21L12.7071 27.2929C12.3166 27.6834 12.3166 28.3166 12.7071 28.7071L15.2929 31.2929C15.6834 31.6834 16.3166 31.6834 16.7071 31.2929L31.2929 16.7071C31.6834 16.3166 31.6834 15.6834 31.2929 15.2929L16.7071 0.707107C16.3166 0.316583 15.6834 0.316582 15.2929 0.707106L12.7071 3.29289C12.3166 3.68342 12.3166 4.31658 12.7071 4.70711L21 13H1C0.447715 13 0 13.4477 0 14Z" fill="white"/>
</svg>
