<svg className={styles.home_button} width="113" height="57" viewBox="0 0 113 57" fill="none" xmlns="http://www.w3.org/2000/svg">
    <g id="Group 1">
        <g className={styles.logo_n}>
            <mask id="path-1-inside-1_0_1" fill="white">
                <path d="M0 57L19 0H33L14 57H0Z"/>
            </mask>
            <path d="M0 57L19 0H33L14 57H0Z" fill="#004799" stroke="black" stroke-width="2" mask="url(#path-1-inside-1_0_1)"/>
        </g>
        <g className={styles.logo_v}>
            <mask id="path-2-inside-2_0_1" fill="white">
                <path d="M53.7511 56.8453H41.6493L19 0H33L49.6987 45.7427C57.9886 34.7141 62.1336 24.1296 62.1336 13.9893C62.1336 8.58601 61.3564 3.92292 59.8021 0H73.0697C74.2169 2.96069 74.7906 6.88361 74.7906 11.7688C74.7906 25.3139 67.7774 40.3394 53.7511 56.8453Z"/>
            </mask>
            <path d="M53.7511 56.8453H41.6493L19 0H33L49.6987 45.7427C57.9886 34.7141 62.1336 24.1296 62.1336 13.9893C62.1336 8.58601 61.3564 3.92292 59.8021 0H73.0697C74.2169 2.96069 74.7906 6.88361 74.7906 11.7688C74.7906 25.3139 67.7774 40.3394 53.7511 56.8453Z" fill="#0070F3" stroke="black" stroke-width="2" mask="url(#path-2-inside-2_0_1)"/>
        </g>
        <g className={styles.logo_u}>
            <mask id="path-3-inside-3_0_1" fill="white">
                <path d="M88.0136 56.8295C83.1629 56.8295 79.4479 55.6582 76.8688 53.3157C74.2896 50.9731 73 47.6959 73 43.4841C73 42.5849 73.0592 41.6503 73.1775 40.6801C73.2958 39.6863 73.4023 38.9528 73.4969 38.4796C73.5916 37.9826 75.0468 31.1561 77.8626 18H88.9719L84.3223 39.8993C84.0857 40.9404 83.9674 41.9815 83.9674 43.0227C83.9674 44.7264 84.4643 45.9923 85.4581 46.8204C86.4519 47.6486 87.7652 48.0627 89.3978 48.0627C91.4801 48.0627 93.1365 47.3883 94.3669 46.0396C95.621 44.6672 96.5438 42.6204 97.1354 39.8993L101.785 18H112.788L108.351 38.8345C107.002 45.2233 104.719 49.8255 101.501 52.6413C98.283 55.4335 93.7872 56.8295 88.0136 56.8295Z"/>
            </mask>
            <path d="M88.0136 56.8295C83.1629 56.8295 79.4479 55.6582 76.8688 53.3157C74.2896 50.9731 73 47.6959 73 43.4841C73 42.5849 73.0592 41.6503 73.1775 40.6801C73.2958 39.6863 73.4023 38.9528 73.4969 38.4796C73.5916 37.9826 75.0468 31.1561 77.8626 18H88.9719L84.3223 39.8993C84.0857 40.9404 83.9674 41.9815 83.9674 43.0227C83.9674 44.7264 84.4643 45.9923 85.4581 46.8204C86.4519 47.6486 87.7652 48.0627 89.3978 48.0627C91.4801 48.0627 93.1365 47.3883 94.3669 46.0396C95.621 44.6672 96.5438 42.6204 97.1354 39.8993L101.785 18H112.788L108.351 38.8345C107.002 45.2233 104.719 49.8255 101.501 52.6413C98.283 55.4335 93.7872 56.8295 88.0136 56.8295Z" fill="#004799" stroke="black" stroke-width="2" mask="url(#path-3-inside-3_0_1)"/>
        </g>
    </g>
</svg>
