<svg width="32" height="32" viewBox="0 0 32 32" fill="none" xmlns="http://www.w3.org/2000/svg">
<g clip-path="url(#clip0_53_151)">
<path d="M-0.630321 21.7226C-0.48184 21.8711 -0.241105 21.8711 -0.0926237 21.7226C0.0558574 21.5742 0.0558574 21.3334 -0.0926237 21.1849C-0.241105 21.0365 -0.48184 21.0365 -0.630321 21.1849C-0.778802 21.3334 -0.778802 21.5742 -0.630321 21.7226Z" fill="#FFCF24"/>
<path d="M2.02852 24.5176C2.21458 24.7037 2.51625 24.7037 2.70231 24.5176C2.88838 24.3316 2.88838 24.0299 2.70231 23.8438C2.51625 23.6578 2.21458 23.6578 2.02852 23.8438C1.84245 24.0299 1.84245 24.3316 2.02852 24.5176Z" fill="#FFCF24"/>
<path d="M4.68627 27.3137C4.91054 27.538 5.27414 27.538 5.4984 27.3137C5.72266 27.0895 5.72266 26.7259 5.4984 26.5016C5.27414 26.2773 4.91054 26.2773 4.68627 26.5016C4.46201 26.7259 4.46201 27.0895 4.68627 27.3137Z" fill="#FFCF24"/>
<path d="M7.48238 29.9715C7.66844 30.1575 7.97011 30.1575 8.15617 29.9715C8.34223 29.7854 8.34223 29.4837 8.15617 29.2977C7.97011 29.1116 7.66844 29.1116 7.48237 29.2977C7.29631 29.4837 7.29631 29.7854 7.48238 29.9715Z" fill="#FFCF24"/>
<path d="M10.2773 32.6303C10.4258 32.7788 10.6665 32.7788 10.815 32.6303C10.9635 32.4818 10.9635 32.2411 10.815 32.0926C10.6665 31.9441 10.4258 31.9441 10.2773 32.0926C10.1289 32.2411 10.1289 32.4818 10.2773 32.6303Z" fill="#FFCF24"/>
<path d="M-0.69835 16.3369C-0.512287 16.5229 -0.210618 16.5229 -0.0245549 16.3369C0.161509 16.1508 0.161509 15.8491 -0.0245549 15.6631C-0.210618 15.477 -0.512287 15.477 -0.69835 15.6631C-0.884414 15.8491 -0.884414 16.1508 -0.69835 16.3369Z" fill="#0070F3"/>
<path d="M1.89135 19.201C2.15319 19.4628 2.57773 19.4628 2.83957 19.201C3.10141 18.9391 3.10141 18.5146 2.83957 18.2528C2.57772 17.9909 2.15319 17.9909 1.89135 18.2528C1.6295 18.5146 1.6295 18.9391 1.89135 19.201Z" fill="#0070F3"/>
<path d="M4.48104 22.0651C4.81867 22.4027 5.36607 22.4027 5.70369 22.0651C6.04132 21.7275 6.04132 21.1801 5.70369 20.8425C5.36607 20.5048 4.81867 20.5048 4.48104 20.8425C4.14342 21.1801 4.14342 21.7275 4.48104 22.0651Z" fill="#0070F3"/>
<path d="M7.07185 24.9281C7.48464 25.3409 8.15391 25.3409 8.5667 24.9281C8.97949 24.5153 8.97949 23.8461 8.5667 23.4333C8.15391 23.0205 7.48464 23.0205 7.07185 23.4333C6.65906 23.8461 6.65906 24.5153 7.07185 24.9281Z" fill="#0070F3"/>
<path d="M9.93487 27.5189C10.2725 27.8566 10.8199 27.8566 11.1575 27.5189C11.4951 27.1813 11.4951 26.6339 11.1575 26.2963C10.8199 25.9587 10.2725 25.9587 9.93487 26.2963C9.59725 26.6339 9.59725 27.1813 9.93487 27.5189Z" fill="#0070F3"/>
<path d="M12.7989 30.1087C13.0608 30.3705 13.4853 30.3705 13.7472 30.1087C14.009 29.8468 14.009 29.4223 13.7472 29.1604C13.4853 28.8986 13.0608 28.8986 12.7989 29.1604C12.5371 29.4223 12.5371 29.8468 12.7989 30.1087Z" fill="#0070F3"/>
<path d="M15.6631 32.6984C15.8491 32.8844 16.1508 32.8844 16.3369 32.6984C16.5229 32.5123 16.5229 32.2106 16.3369 32.0246C16.1508 31.8385 15.8491 31.8385 15.6631 32.0246C15.477 32.2106 15.477 32.5123 15.6631 32.6984Z" fill="#0070F3"/>
<path d="M-0.630352 10.815C-0.481871 10.9635 -0.241135 10.9635 -0.0926542 10.815C0.0558269 10.6665 0.0558268 10.4258 -0.0926543 10.2773C-0.241135 10.1288 -0.481871 10.1288 -0.630352 10.2773C-0.778833 10.4258 -0.778833 10.6665 -0.630352 10.815Z" fill="#FFCF24"/>
<path d="M1.89132 13.7472C2.15316 14.009 2.57769 14.009 2.83954 13.7472C3.10138 13.4853 3.10138 13.0608 2.83954 12.799C2.57769 12.5371 2.15316 12.5371 1.89132 12.799C1.62947 13.0608 1.62947 13.4853 1.89132 13.7472Z" fill="#0070F3"/>
<path d="M4.41299 16.6793C4.78819 17.0545 5.39652 17.0545 5.77173 16.6793C6.14694 16.3041 6.14694 15.6958 5.77173 15.3206C5.39652 14.9454 4.78819 14.9454 4.41298 15.3206C4.03778 15.6958 4.03778 16.3041 4.41299 16.6793Z" fill="#FFCF24"/>
<path d="M6.93462 19.6115C7.42319 20.1001 8.21532 20.1001 8.70389 19.6115C9.19246 19.123 9.19246 18.3308 8.70389 17.8423C8.21532 17.3537 7.42319 17.3537 6.93462 17.8423C6.44605 18.3308 6.44605 19.123 6.93462 19.6115Z" fill="#FFCF24"/>
<path d="M9.45629 22.5437C10.0582 23.1456 11.0342 23.1456 11.6361 22.5437C12.238 21.9418 12.238 20.9658 11.6361 20.3639C11.0342 19.762 10.0582 19.762 9.45629 20.3639C8.85436 20.9658 8.85436 21.9418 9.45629 22.5437Z" fill="#FFCF24"/>
<path d="M12.3884 25.0653C12.877 25.5539 13.6691 25.5539 14.1577 25.0653C14.6463 24.5768 14.6463 23.7846 14.1577 23.2961C13.6691 22.8075 12.877 22.8075 12.3884 23.2961C11.8998 23.7846 11.8998 24.5768 12.3884 25.0653Z" fill="#FFCF24"/>
<path d="M15.3206 27.587C15.6958 27.9622 16.3042 27.9622 16.6794 27.587C17.0546 27.2118 17.0546 26.6035 16.6794 26.2282C16.3042 25.853 15.6958 25.853 15.3206 26.2283C14.9454 26.6035 14.9454 27.2118 15.3206 27.587Z" fill="#FFCF24"/>
<path d="M18.2528 30.1086C18.5146 30.3705 18.9392 30.3705 19.201 30.1086C19.4629 29.8468 19.4629 29.4223 19.201 29.1604C18.9392 28.8986 18.5146 28.8986 18.2528 29.1604C17.991 29.4223 17.991 29.8468 18.2528 30.1086Z" fill="#0070F3"/>
<path d="M2.02852 8.15614C2.21458 8.34221 2.51625 8.34221 2.70231 8.15614C2.88838 7.97008 2.88838 7.66841 2.70231 7.48235C2.51625 7.29628 2.21458 7.29628 2.02852 7.48235C1.84245 7.66841 1.84245 7.97008 2.02852 8.15614Z" fill="#FFCF24"/>
<path d="M4.48104 11.1575C4.81867 11.4951 5.36607 11.4951 5.70369 11.1575C6.04132 10.8198 6.04132 10.2724 5.70369 9.93482C5.36607 9.59719 4.81867 9.59719 4.48104 9.93482C4.14342 10.2724 4.14342 10.8198 4.48104 11.1575Z" fill="#0070F3"/>
<path d="M6.93462 14.1577C7.42319 14.6463 8.21532 14.6463 8.70389 14.1577C9.19246 13.6691 9.19246 12.877 8.70389 12.3884C8.21532 11.8999 7.42319 11.8999 6.93462 12.3884C6.44605 12.877 6.44605 13.6691 6.93462 14.1577Z" fill="#FFCF24"/>
<path d="M9.38823 17.1579C10.0277 17.7974 11.0646 17.7974 11.7041 17.1579C12.3436 16.5184 12.3436 15.4815 11.7041 14.842C11.0646 14.2025 10.0277 14.2025 9.38823 14.842C8.74872 15.4815 8.74872 16.5184 9.38823 17.1579Z" fill="#0070F3"/>
<path d="M11.8407 20.1593C12.6318 20.9504 13.9144 20.9504 14.7054 20.1593C15.4965 19.3682 15.4965 18.0856 14.7054 17.2946C13.9144 16.5035 12.6318 16.5035 11.8407 17.2946C11.0496 18.0856 11.0496 19.3682 11.8407 20.1593Z" fill="#0070F3"/>
<path d="M14.842 22.6118C15.4815 23.2513 16.5184 23.2513 17.1579 22.6118C17.7974 21.9723 17.7974 20.9354 17.1579 20.2959C16.5184 19.6564 15.4815 19.6564 14.842 20.2959C14.2025 20.9354 14.2025 21.9723 14.842 22.6118Z" fill="#0070F3"/>
<path d="M17.8423 25.0653C18.3308 25.5539 19.123 25.5539 19.6115 25.0653C20.1001 24.5768 20.1001 23.7846 19.6115 23.2961C19.123 22.8075 18.3308 22.8075 17.8423 23.2961C17.3537 23.7846 17.3537 24.5768 17.8423 25.0653Z" fill="#FFCF24"/>
<path d="M20.8425 27.5189C21.1801 27.8566 21.7275 27.8566 22.0651 27.5189C22.4028 27.1813 22.4028 26.6339 22.0651 26.2963C21.7275 25.9587 21.1801 25.9587 20.8425 26.2963C20.5049 26.6339 20.5049 27.1813 20.8425 27.5189Z" fill="#0070F3"/>
<path d="M23.8439 29.9714C24.0299 30.1575 24.3316 30.1575 24.5177 29.9714C24.7037 29.7854 24.7037 29.4837 24.5177 29.2976C24.3316 29.1116 24.0299 29.1116 23.8439 29.2976C23.6578 29.4837 23.6578 29.7854 23.8439 29.9714Z" fill="#FFCF24"/>
<path d="M4.6863 5.49838C4.91057 5.72264 5.27417 5.72264 5.49843 5.49838C5.72269 5.27412 5.72269 4.91052 5.49843 4.68625C5.27417 4.46199 4.91057 4.46199 4.6863 4.68625C4.46204 4.91052 4.46204 5.27412 4.6863 5.49838Z" fill="#FFCF24"/>
<path d="M7.07185 8.56667C7.48464 8.97946 8.15391 8.97946 8.5667 8.56667C8.97949 8.15388 8.97949 7.48461 8.5667 7.07182C8.15391 6.65903 7.48464 6.65903 7.07185 7.07182C6.65906 7.48461 6.65906 8.15388 7.07185 8.56667Z" fill="#0070F3"/>
<path d="M9.45629 11.636C10.0582 12.238 11.0342 12.238 11.6361 11.636C12.238 11.0341 12.238 10.0582 11.6361 9.45625C11.0342 8.85431 10.0582 8.85431 9.45629 9.45625C8.85436 10.0582 8.85436 11.0341 9.45629 11.636Z" fill="#FFCF24"/>
<path d="M11.8407 14.7054C12.6318 15.4965 13.9144 15.4965 14.7055 14.7054C15.4966 13.9143 15.4965 12.6317 14.7055 11.8407C13.9144 11.0496 12.6318 11.0496 11.8407 11.8407C11.0497 12.6317 11.0497 13.9143 11.8407 14.7054Z" fill="#0070F3"/>
<path d="M17.2945 20.1593C18.0856 20.9503 19.3682 20.9503 20.1593 20.1593C20.9503 19.3682 20.9503 18.0856 20.1593 17.2945C19.3682 16.5034 18.0856 16.5034 17.2945 17.2945C16.5034 18.0856 16.5034 19.3682 17.2945 20.1593Z" fill="#0070F3"/>
<path d="M20.3639 22.5437C20.9659 23.1456 21.9418 23.1456 22.5437 22.5437C23.1457 21.9418 23.1457 20.9658 22.5437 20.3639C21.9418 19.762 20.9659 19.762 20.3639 20.3639C19.762 20.9658 19.762 21.9418 20.3639 22.5437Z" fill="#FFCF24"/>
<path d="M23.4333 24.9281C23.8461 25.3409 24.5154 25.3409 24.9282 24.9281C25.341 24.5153 25.341 23.8461 24.9282 23.4333C24.5154 23.0205 23.8461 23.0205 23.4333 23.4333C23.0205 23.8461 23.0205 24.5153 23.4333 24.9281Z" fill="#0070F3"/>
<path d="M26.5016 27.3137C26.7258 27.5379 27.0894 27.5379 27.3137 27.3137C27.538 27.0894 27.538 26.7258 27.3137 26.5016C27.0894 26.2773 26.7258 26.2773 26.5016 26.5016C26.2773 26.7258 26.2773 27.0894 26.5016 27.3137Z" fill="#FFCF24"/>
<path d="M7.48234 2.70232C7.66841 2.88838 7.97008 2.88838 8.15614 2.70231C8.3422 2.51625 8.3422 2.21458 8.15614 2.02852C7.97008 1.84246 7.66841 1.84246 7.48234 2.02852C7.29628 2.21458 7.29628 2.51625 7.48234 2.70232Z" fill="#FFCF24"/>
<path d="M9.93487 5.70364C10.2725 6.04126 10.8199 6.04126 11.1575 5.70364C11.4951 5.36602 11.4951 4.81862 11.1575 4.48099C10.8199 4.14337 10.2725 4.14337 9.93487 4.48099C9.59725 4.81862 9.59725 5.36602 9.93487 5.70364Z" fill="#0070F3"/>
<path d="M12.3885 8.70388C12.877 9.19245 13.6692 9.19245 14.1577 8.70388C14.6463 8.21531 14.6463 7.42318 14.1577 6.93461C13.6692 6.44604 12.877 6.44604 12.3885 6.93461C11.8999 7.42318 11.8999 8.21531 12.3885 8.70388Z" fill="#FFCF24"/>
<path d="M14.8421 11.7041C15.4816 12.3436 16.5184 12.3436 17.158 11.7041C17.7975 11.0646 17.7975 10.0277 17.158 9.3882C16.5184 8.74868 15.4816 8.74868 14.8421 9.3882C14.2025 10.0277 14.2025 11.0646 14.8421 11.7041Z" fill="#0070F3"/>
<path d="M17.2946 14.7054C18.0856 15.4965 19.3682 15.4965 20.1593 14.7054C20.9504 13.9144 20.9504 12.6318 20.1593 11.8407C19.3682 11.0496 18.0856 11.0496 17.2946 11.8407C16.5035 12.6318 16.5035 13.9144 17.2946 14.7054Z" fill="#0070F3"/>
<path d="M20.2959 17.1579C20.9354 17.7974 21.9722 17.7974 22.6117 17.1579C23.2513 16.5184 23.2513 15.4815 22.6117 14.842C21.9722 14.2025 20.9354 14.2025 20.2959 14.842C19.6563 15.4815 19.6563 16.5184 20.2959 17.1579Z" fill="#0070F3"/>
<path d="M23.2961 19.6115C23.7847 20.1001 24.5768 20.1001 25.0654 19.6115C25.5539 19.123 25.5539 18.3308 25.0654 17.8423C24.5768 17.3537 23.7847 17.3537 23.2961 17.8423C22.8075 18.3308 22.8075 19.123 23.2961 19.6115Z" fill="#FFCF24"/>
<path d="M26.2963 22.0651C26.6339 22.4027 27.1813 22.4027 27.519 22.0651C27.8566 21.7275 27.8566 21.1801 27.519 20.8425C27.1813 20.5048 26.6339 20.5048 26.2963 20.8425C25.9587 21.1801 25.9587 21.7275 26.2963 22.0651Z" fill="#0070F3"/>
<path d="M29.2977 24.5176C29.4837 24.7037 29.7854 24.7037 29.9715 24.5176C30.1575 24.3315 30.1575 24.0299 29.9715 23.8438C29.7854 23.6577 29.4837 23.6577 29.2977 23.8438C29.1116 24.0299 29.1116 24.3315 29.2977 24.5176Z" fill="#FFCF24"/>
<path d="M10.2773 -0.0926625C10.4258 0.0558186 10.6665 0.0558182 10.815 -0.0926629C10.9635 -0.241144 10.9635 -0.48188 10.815 -0.630361C10.6665 -0.778842 10.4258 -0.778841 10.2773 -0.63036C10.1288 -0.481879 10.1288 -0.241144 10.2773 -0.0926625Z" fill="#FFCF24"/>
<path d="M12.799 2.83953C13.0608 3.10137 13.4853 3.10137 13.7472 2.83953C14.009 2.57768 14.009 2.15315 13.7472 1.89131C13.4853 1.62946 13.0608 1.62946 12.799 1.89131C12.5371 2.15315 12.5371 2.57768 12.799 2.83953Z" fill="#0070F3"/>
<path d="M15.3206 5.77169C15.6958 6.1469 16.3042 6.1469 16.6794 5.77169C17.0546 5.39648 17.0546 4.78815 16.6794 4.41294C16.3042 4.03774 15.6958 4.03774 15.3206 4.41294C14.9454 4.78815 14.9454 5.39648 15.3206 5.77169Z" fill="#FFCF24"/>
<path d="M17.8423 8.70388C18.3308 9.19245 19.123 9.19245 19.6115 8.70388C20.1001 8.21531 20.1001 7.42318 19.6115 6.93461C19.123 6.44604 18.3308 6.44604 17.8423 6.93461C17.3537 7.42318 17.3537 8.21531 17.8423 8.70388Z" fill="#FFCF24"/>
<path d="M20.3639 11.636C20.9659 12.238 21.9418 12.238 22.5437 11.636C23.1457 11.0341 23.1457 10.0582 22.5437 9.45625C21.9418 8.85431 20.9659 8.85431 20.3639 9.45625C19.762 10.0582 19.762 11.0341 20.3639 11.636Z" fill="#FFCF24"/>
<path d="M23.2961 14.1577C23.7846 14.6462 24.5768 14.6462 25.0653 14.1577C25.5539 13.6691 25.5539 12.877 25.0653 12.3884C24.5768 11.8998 23.7846 11.8998 23.2961 12.3884C22.8075 12.877 22.8075 13.6691 23.2961 14.1577Z" fill="#FFCF24"/>
<path d="M26.2283 16.6793C26.6035 17.0545 27.2118 17.0545 27.587 16.6793C27.9622 16.3041 27.9622 15.6958 27.587 15.3206C27.2118 14.9454 26.6035 14.9454 26.2283 15.3206C25.8531 15.6958 25.8531 16.3041 26.2283 16.6793Z" fill="#FFCF24"/>
<path d="M29.1605 19.201C29.4223 19.4628 29.8468 19.4628 30.1087 19.201C30.3705 18.9391 30.3705 18.5146 30.1087 18.2528C29.8468 17.9909 29.4223 17.9909 29.1605 18.2528C28.8986 18.5146 28.8986 18.9391 29.1605 19.201Z" fill="#0070F3"/>
<path d="M32.0926 21.7226C32.2411 21.8711 32.4819 21.8711 32.6303 21.7226C32.7788 21.5742 32.7788 21.3334 32.6303 21.1849C32.4819 21.0365 32.2411 21.0365 32.0926 21.1849C31.9442 21.3334 31.9442 21.5742 32.0926 21.7226Z" fill="#FFCF24"/>
<path d="M15.6631 -0.0246136C15.8491 0.16145 16.1508 0.16145 16.3369 -0.0246132C16.5229 -0.210676 16.5229 -0.512345 16.3369 -0.698408C16.1508 -0.884471 15.8491 -0.884472 15.6631 -0.698408C15.477 -0.512345 15.477 -0.210677 15.6631 -0.0246136Z" fill="#0070F3"/>
<path d="M18.2528 2.83953C18.5146 3.10137 18.9392 3.10137 19.201 2.83953C19.4629 2.57768 19.4629 2.15315 19.201 1.89131C18.9392 1.62946 18.5146 1.62946 18.2528 1.89131C17.991 2.15315 17.991 2.57768 18.2528 2.83953Z" fill="#0070F3"/>
<path d="M20.8425 5.70364C21.1801 6.04126 21.7275 6.04126 22.0651 5.70364C22.4028 5.36601 22.4028 4.81862 22.0651 4.48099C21.7275 4.14337 21.1801 4.14337 20.8425 4.48099C20.5049 4.81862 20.5049 5.36601 20.8425 5.70364Z" fill="#0070F3"/>
<path d="M23.4333 8.56667C23.8461 8.97945 24.5154 8.97945 24.9282 8.56666C25.341 8.15388 25.341 7.48461 24.9282 7.07182C24.5154 6.65903 23.8461 6.65903 23.4333 7.07182C23.0205 7.48461 23.0205 8.15388 23.4333 8.56667Z" fill="#0070F3"/>
<path d="M26.2963 11.1575C26.6339 11.4951 27.1813 11.4951 27.5189 11.1575C27.8566 10.8198 27.8566 10.2724 27.5189 9.93482C27.1813 9.59719 26.6339 9.59719 26.2963 9.93482C25.9587 10.2724 25.9587 10.8198 26.2963 11.1575Z" fill="#0070F3"/>
<path d="M29.1605 13.7472C29.4223 14.009 29.8468 14.009 30.1087 13.7472C30.3705 13.4853 30.3705 13.0608 30.1087 12.799C29.8468 12.5371 29.4223 12.5371 29.1605 12.799C28.8986 13.0608 28.8986 13.4853 29.1605 13.7472Z" fill="#0070F3"/>
<path d="M32.0246 16.3369C32.2106 16.5229 32.5123 16.5229 32.6984 16.3369C32.8844 16.1508 32.8844 15.8491 32.6984 15.6631C32.5123 15.477 32.2106 15.477 32.0246 15.6631C31.8385 15.8491 31.8385 16.1508 32.0246 16.3369Z" fill="#FFCF24"/>
<path d="M21.185 -0.0926625C21.3334 0.0558183 21.5742 0.0558187 21.7227 -0.0926621C21.8711 -0.241143 21.8711 -0.481878 21.7227 -0.630359C21.5742 -0.77884 21.3334 -0.77884 21.185 -0.63036C21.0365 -0.481879 21.0365 -0.241143 21.185 -0.0926625Z" fill="#FFCF24"/>
<path d="M23.8439 2.70232C24.0299 2.88838 24.3316 2.88838 24.5177 2.70232C24.7037 2.51625 24.7037 2.21458 24.5177 2.02852C24.3316 1.84246 24.0299 1.84246 23.8439 2.02852C23.6578 2.21458 23.6578 2.51625 23.8439 2.70232Z" fill="#FFCF24"/>
<path d="M26.5016 5.49838C26.7258 5.72264 27.0894 5.72264 27.3137 5.49838C27.538 5.27412 27.538 4.91052 27.3137 4.68625C27.0894 4.46199 26.7258 4.46199 26.5016 4.68625C26.2773 4.91052 26.2773 5.27412 26.5016 5.49838Z" fill="#FFCF24"/>
<path d="M29.2977 8.15614C29.4837 8.34221 29.7854 8.34221 29.9715 8.15614C30.1575 7.97008 30.1575 7.66841 29.9715 7.48235C29.7854 7.29628 29.4837 7.29628 29.2977 7.48235C29.1116 7.66841 29.1116 7.97008 29.2977 8.15614Z" fill="#FFCF24"/>
<path d="M32.0926 10.815C32.2411 10.9635 32.4819 10.9635 32.6303 10.815C32.7788 10.6665 32.7788 10.4258 32.6303 10.2773C32.4819 10.1288 32.2411 10.1288 32.0926 10.2773C31.9442 10.4258 31.9442 10.6665 32.0926 10.815Z" fill="#FFCF24"/>
<path d="M14.2263 17.7737C15.2059 18.7533 16.7941 18.7533 17.7737 17.7737C18.7533 16.7941 18.7533 15.2058 17.7737 14.2262C16.7941 13.2466 15.2059 13.2466 14.2263 14.2262C13.2467 15.2058 13.2467 16.7941 14.2263 17.7737Z" fill="#0070F3"/>
</g>
<defs>
<clipPath id="clip0_53_151">
<rect width="32" height="32" rx="16" fill="white"/>
</clipPath>
</defs>
</svg>
