<svg width="32" height="32" viewBox="0 0 32 32" fill="none" xmlns="http://www.w3.org/2000/svg">
<rect x="24" y="4" width="4" height="4" rx="2" fill="#FFCF24"/>
<rect x="20" y="8" width="4" height="4" rx="2" fill="#FFCF24"/>
<rect x="16" y="12" width="4" height="4" rx="2" fill="#FFCF24"/>
<rect x="12" y="16" width="4" height="4" rx="2" fill="#FFCF24"/>
<rect x="8" y="20" width="4" height="4" rx="2" fill="#FFCF24"/>
<rect x="4" y="24" width="4" height="4" rx="2" fill="#FFCF24"/>
<rect x="20.5" y="0.5" width="3" height="3" rx="1.5" fill="#0070F3"/>
<rect x="16.5" y="4.5" width="3" height="3" rx="1.5" fill="#0070F3"/>
<rect x="12.5" y="8.5" width="3" height="3" rx="1.5" fill="#0070F3"/>
<rect x="8.5" y="12.5" width="3" height="3" rx="1.5" fill="#0070F3"/>
<rect x="4.5" y="16.5" width="3" height="3" rx="1.5" fill="#0070F3"/>
<rect x="12" width="4" height="4" rx="2" fill="#FFCF24"/>
<rect x="8" y="4" width="4" height="4" rx="2" fill="#FFCF24"/>
<rect x="4" y="8" width="4" height="4" rx="2" fill="#FFCF24"/>
<rect x="24.5" y="12.5" width="3" height="3" rx="1.5" fill="#0070F3"/>
<rect x="20.5" y="16.5" width="3" height="3" rx="1.5" fill="#0070F3"/>
<rect x="16.5" y="20.5" width="3" height="3" rx="1.5" fill="#0070F3"/>
<rect x="12.5" y="24.5" width="3" height="3" rx="1.5" fill="#0070F3"/>
<rect x="8.5" y="28.5" width="3" height="3" rx="1.5" fill="#0070F3"/>
<rect x="24" y="20" width="4" height="4" rx="2" fill="#FFCF24"/>
<rect x="20" y="24" width="4" height="4" rx="2" fill="#FFCF24"/>
<rect x="16" y="28" width="4" height="4" rx="2" fill="#FFCF24"/>
</svg>
